<svg width="58" height="18" viewBox="0 0 58 18" fill="none" xmlns="http://www.w3.org/2000/svg">
<path d="M30.5688 4.52252C30.5688 5.17117 30.0434 5.69369 29.3911 5.69369C28.7388 5.69369 28.2133 5.17117 28.2133 4.52252C28.2133 3.87387 28.7207 3.35135 29.3911 3.35135C30.0615 3.36937 30.5688 3.89189 30.5688 4.52252ZM25.7128 6.88288C25.7128 6.99099 25.7128 7.17117 25.7128 7.17117C25.7128 7.17117 25.1511 6.45045 23.9553 6.45045C21.9803 6.45045 20.4401 7.94595 20.4401 10.018C20.4401 12.0721 21.9621 13.5856 23.9553 13.5856C25.1693 13.5856 25.7128 12.8468 25.7128 12.8468V13.1532C25.7128 13.2973 25.8216 13.4054 25.9665 13.4054H27.4342V6.63063C27.4342 6.63063 26.0934 6.63063 25.9665 6.63063C25.8216 6.63063 25.7128 6.75676 25.7128 6.88288ZM25.7128 11.2252C25.4411 11.6216 24.8975 11.964 24.2452 11.964C23.0855 11.964 22.1977 11.2432 22.1977 10.018C22.1977 8.79279 23.0855 8.07207 24.2452 8.07207C24.8794 8.07207 25.4592 8.43243 25.7128 8.81081V11.2252ZM28.5213 6.63063H30.2608V13.4054H28.5213V6.63063ZM54.5045 6.45045C53.3086 6.45045 52.7469 7.17117 52.7469 7.17117V3.36937H51.0074V13.4054C51.0074 13.4054 52.3483 13.4054 52.4751 13.4054C52.6201 13.4054 52.7288 13.2793 52.7288 13.1532V12.8468C52.7288 12.8468 53.2905 13.5856 54.4864 13.5856C56.4614 13.5856 58.0015 12.0721 58.0015 10.018C58.0015 7.96396 56.4614 6.45045 54.5045 6.45045ZM54.2146 11.9459C53.5442 11.9459 53.0187 11.6036 52.7469 11.2072V8.79279C53.0187 8.43243 53.5985 8.05405 54.2146 8.05405C55.3742 8.05405 56.262 8.77477 56.262 10C56.262 11.2252 55.3742 11.9459 54.2146 11.9459ZM50.1015 9.38739V13.4234H48.362V9.58559C48.362 8.46847 47.9996 8.01802 47.0212 8.01802C46.4957 8.01802 45.9521 8.28829 45.6079 8.68468V13.4054H43.8684V6.63063H45.2455C45.3904 6.63063 45.4992 6.75676 45.4992 6.88288V7.17117C46.0065 6.64865 46.6769 6.45045 47.3473 6.45045C48.1083 6.45045 48.7425 6.66667 49.2499 7.0991C49.8659 7.6036 50.1015 8.25225 50.1015 9.38739ZM39.6466 6.45045C38.4507 6.45045 37.889 7.17117 37.889 7.17117V3.36937H36.1496V13.4054C36.1496 13.4054 37.4904 13.4054 37.6173 13.4054C37.7622 13.4054 37.8709 13.2793 37.8709 13.1532V12.8468C37.8709 12.8468 38.4326 13.5856 39.6285 13.5856C41.6035 13.5856 43.1437 12.0721 43.1437 10.018C43.1618 7.96396 41.6216 6.45045 39.6466 6.45045ZM39.3567 11.9459C38.6863 11.9459 38.1608 11.6036 37.889 11.2072V8.79279C38.1608 8.43243 38.7407 8.05405 39.3567 8.05405C40.5163 8.05405 41.4042 8.77477 41.4042 10C41.4042 11.2252 40.5163 11.9459 39.3567 11.9459ZM34.6457 6.45045C35.1711 6.45045 35.4429 6.54054 35.4429 6.54054V8.14414C35.4429 8.14414 33.9934 7.65766 33.0874 8.68468V13.4234H31.348V6.63063C31.348 6.63063 32.6888 6.63063 32.8156 6.63063C32.9606 6.63063 33.0693 6.75676 33.0693 6.88288V7.17117C33.3954 6.79279 34.1021 6.45045 34.6457 6.45045ZM16.5807 12.7928C16.4901 12.5766 16.3995 12.3423 16.3089 12.1441C16.164 11.8198 16.019 11.5135 15.8922 11.2252L15.874 11.2072C14.6238 8.5045 13.283 5.76577 11.8697 3.06306L11.8153 2.95495C11.6704 2.68468 11.5254 2.3964 11.3805 2.10811C11.1993 1.78378 11.0181 1.44144 10.7282 1.11712C10.1483 0.396396 9.31485 0 8.427 0C7.52103 0 6.70566 0.396396 6.10773 1.08108C5.83594 1.40541 5.63662 1.74775 5.45543 2.07207C5.31048 2.36036 5.16552 2.64865 5.02057 2.91892L4.96621 3.02703C3.57102 5.72973 2.21207 8.46847 0.961835 11.1712L0.943715 11.2072C0.81688 11.4955 0.671925 11.8018 0.526971 12.1261C0.436374 12.3243 0.345777 12.5405 0.255181 12.7748C0.0196293 13.4414 -0.0528481 14.0721 0.0377486 14.7207C0.237061 16.0721 1.14303 17.2072 2.39326 17.7117C2.86437 17.9099 3.35359 18 3.86093 18C4.00588 18 4.18708 17.982 4.33203 17.964C4.92997 17.8919 5.54603 17.6937 6.14397 17.3514C6.88686 16.9369 7.59351 16.3423 8.39076 15.4775C9.18801 16.3423 9.91279 16.9369 10.6376 17.3514C11.2355 17.6937 11.8516 17.8919 12.4495 17.964C12.5944 17.982 12.7756 18 12.9206 18C13.4279 18 13.9353 17.9099 14.3883 17.7117C15.6566 17.2072 16.5445 16.0541 16.7438 14.7207C16.8887 14.0901 16.8163 13.4595 16.5807 12.7928ZM8.40888 13.7297C7.43044 12.5045 6.79626 11.3514 6.57883 10.3784C6.48823 9.96396 6.47011 9.6036 6.52447 9.27928C6.56071 8.99099 6.66943 8.73874 6.81438 8.52252C7.15865 8.03604 7.73847 7.72973 8.40888 7.72973C9.0793 7.72973 9.67724 8.01802 10.0034 8.52252C10.1483 8.73874 10.2571 8.99099 10.2933 9.27928C10.3477 9.6036 10.3295 9.98198 10.2389 10.3784C10.0215 11.3333 9.38733 12.4865 8.40888 13.7297ZM15.6385 14.5766C15.5117 15.5135 14.8775 16.3243 13.9896 16.6847C13.5548 16.8649 13.0837 16.9189 12.6126 16.8649C12.1596 16.8108 11.7066 16.6667 11.2355 16.3964C10.5832 16.036 9.93091 15.4775 9.16989 14.6486C10.3658 13.1892 11.0905 11.8559 11.3623 10.6667C11.4892 10.1081 11.5073 9.6036 11.4529 9.13514C11.3805 8.68468 11.2174 8.27027 10.9637 7.90991C10.402 7.0991 9.4598 6.63063 8.40888 6.63063C7.35796 6.63063 6.41576 7.11712 5.85406 7.90991C5.60039 8.27027 5.43731 8.68468 5.36483 9.13514C5.29236 9.6036 5.31048 10.1261 5.45543 10.6667C5.72722 11.8559 6.47011 13.2072 7.64787 14.6667C6.90498 15.4955 6.23456 16.0541 5.58227 16.4144C5.11116 16.6847 4.65818 16.8288 4.2052 16.8829C3.71597 16.9369 3.24487 16.8649 2.82813 16.7027C1.94028 16.3423 1.3061 15.5315 1.17927 14.5946C1.12491 14.1441 1.16115 13.6937 1.34234 13.1892C1.3967 13.009 1.4873 12.8288 1.57789 12.6126C1.70473 12.3243 1.84968 12.018 1.99464 11.7117L2.01276 11.6757C3.26299 8.99099 4.60382 6.25225 5.99901 3.58559L6.05337 3.47748C6.19832 3.20721 6.34328 2.91892 6.48823 2.64865C6.63319 2.36036 6.79626 2.09009 6.99557 1.85586C7.37608 1.42342 7.88342 1.18919 8.44512 1.18919C9.00682 1.18919 9.51416 1.42342 9.89467 1.85586C10.094 2.09009 10.2571 2.36036 10.402 2.64865C10.547 2.91892 10.6919 3.20721 10.8369 3.47748L10.8912 3.58559C12.2683 6.27027 13.6091 9.00901 14.8594 11.6937V11.7117C15.0043 12 15.1312 12.3243 15.2761 12.6126C15.3667 12.8288 15.4573 13.009 15.5117 13.1892C15.6566 13.6577 15.711 14.1081 15.6385 14.5766Z" fill="#C4CBD1"/>
</svg>
