<svg width="136" height="18" viewBox="0 0 136 18" fill="none" xmlns="http://www.w3.org/2000/svg">
<mask id="mask0_237_148" style="mask-type:alpha" maskUnits="userSpaceOnUse" x="0" y="0" width="14" height="18">
<path d="M0.000599119 0.114624H13.3771V17.5266H0L0.000599119 0.114624Z" fill="white"/>
</mask>
<g mask="url(#mask0_237_148)">
<path d="M10.765 5.06523C10.765 6.41523 10.3264 7.43583 9.46129 8.10003C8.58837 8.76963 7.24215 9.10931 5.46097 9.10931C5.11827 9.11046 4.77567 9.09725 4.43408 9.06963C4.1477 9.04563 3.8757 9.01023 3.62407 8.96463V2.59263C3.62407 1.93443 3.79422 1.49583 4.12913 1.28943C4.47961 1.07343 5.14583 0.964234 6.10862 0.964234C7.60042 0.964234 8.76271 1.32363 9.56374 2.03223C10.3606 2.73903 10.765 3.75963 10.765 5.06523ZM11.2515 1.43523C9.85551 0.559234 7.89219 0.115234 5.41544 0.115234C5.20934 0.115234 4.89181 0.121834 4.4173 0.138034C3.97755 0.153034 3.48148 0.176434 2.94347 0.207034L-0.0113831 0.367834V1.00623L0.0802821 1.01043C0.425974 1.02423 0.667419 1.16943 0.818397 1.45323C0.976564 1.75203 1.05685 2.27823 1.05685 3.01803V14.9112C1.05685 15.6204 0.976564 16.1358 0.817798 16.4418C0.667419 16.7328 0.426573 16.8798 0.0820795 16.8864L-0.0113831 16.8882V17.5272H4.6929V16.8882L4.59884 16.8864C4.25374 16.8804 4.0129 16.7364 3.86252 16.4526C3.70435 16.1544 3.62407 15.636 3.62407 14.9106V9.81303C3.99852 9.86703 4.38016 9.90963 4.76 9.94083C5.17519 9.97563 5.59877 9.99303 6.01815 9.99303C8.35232 9.99303 10.179 9.56763 11.4468 8.72943C12.7277 7.88223 13.3771 6.66543 13.3771 5.11143C13.3771 3.55743 12.6618 2.32023 11.2515 1.43523Z" fill="#C4CBD1"/>
</g>
<path d="M26.7512 13.8114L26.0892 13.5894L26.0485 13.6476C25.659 14.2008 25.2924 14.6616 24.9605 15.0174C24.6309 15.369 24.3188 15.63 24.033 15.7926C23.5627 16.057 23.0519 16.2419 22.5215 16.3398C21.9583 16.4496 21.0638 16.5054 19.8632 16.5054C18.8746 16.5054 18.496 16.3746 18.3516 16.2654C18.2138 16.1604 18.049 15.852 18.049 14.9796V3.0174C18.049 2.2782 18.1293 1.7514 18.2875 1.4532C18.4391 1.1688 18.6805 1.0236 19.0256 1.0098L19.1173 1.0062V0.3672H14.368V1.0062L14.4597 1.0098C14.8048 1.0236 15.0468 1.1724 15.1972 1.464C15.356 1.7712 15.4369 2.2938 15.4369 3.018V14.9106C15.4369 15.6198 15.3578 16.1334 15.2026 16.4364C15.0552 16.7244 14.8114 16.8618 14.4579 16.8828L14.368 16.8882V17.5266H25.849L26.7518 13.8114H26.7512ZM39.6365 15.7974C40.0139 15.291 40.2895 14.622 40.4555 13.809C40.619 13.005 40.7017 11.7894 40.7017 10.1946V4.686C40.7017 3.4542 40.812 2.559 41.0294 2.0256C41.2439 1.5 41.6016 1.188 42.1228 1.0272L42.1911 1.0062V0.3672H38.0662V1.0062L38.1471 1.0194C38.6791 1.1064 39.0589 1.4124 39.3082 1.9764C39.5628 2.5506 39.6916 3.4242 39.6916 4.5708V10.1718C39.6916 11.9808 39.5838 13.2738 39.3717 14.0154C39.1632 14.7474 38.7965 15.333 38.2843 15.7554C37.8765 16.0813 37.4087 16.3237 36.9075 16.4688C36.3893 16.6224 35.7596 16.7004 35.0364 16.7004C33.4895 16.7004 32.3824 16.3056 31.7449 15.528C31.1038 14.7444 30.7785 13.3644 30.7785 11.4258V3.0174C30.7785 2.2782 30.8588 1.7514 31.017 1.4532C31.1679 1.1688 31.4094 1.0236 31.7551 1.0098L31.8467 1.0062V0.3672H27.0975V1.0062L27.1892 1.0098C27.5343 1.0236 27.7757 1.1724 27.9267 1.464C28.0855 1.77 28.1664 2.2932 28.1664 3.018V10.9542C28.1664 12.3816 28.2472 13.4442 28.4072 14.1114C28.569 14.7852 28.8386 15.3684 29.21 15.8454C29.7408 16.5078 30.4556 17.0226 31.3345 17.3754C32.2092 17.7276 33.2295 17.9058 34.366 17.9058C35.5924 17.9058 36.6505 17.7318 37.5096 17.3874C38.3753 17.0406 39.0907 16.506 39.6365 15.7974ZM57.4729 15.1302C57.4878 15.2442 57.4992 15.348 57.5064 15.4422C57.5142 15.5352 57.5178 15.6222 57.5178 15.705C57.5178 16.0482 57.4315 16.329 57.2608 16.5408C57.0912 16.7508 56.8695 16.8606 56.5838 16.8816L56.4945 16.8876V17.5266H61.1988V16.8882L61.1233 16.8714C60.8423 16.809 60.5961 16.593 60.3924 16.1994C60.1779 15.789 60.0167 15.2154 59.9131 14.4954L58.2871 2.9316C58.2424 2.67099 58.2201 2.40702 58.2206 2.1426C58.2206 1.8144 58.2996 1.5486 58.4554 1.3524C58.6088 1.1592 58.8299 1.0506 59.1144 1.0158L59.1983 1.0056V0.3672H55.5389L51.9723 13.7004L48.1595 0.3672H44.2862V1.0062L44.3468 1.0302C44.7122 1.1754 44.9728 1.3404 45.1196 1.5744C45.2682 1.8108 45.3431 2.1606 45.3431 2.6154C45.3431 2.8698 45.3359 3.1272 45.3203 3.3858L45.3215 3.4524L43.8213 13.5972C43.6793 14.5776 43.4445 15.3534 43.1228 15.9024C42.8088 16.44 42.4098 16.7544 41.9383 16.8702L41.8652 16.8882V17.5266H46.1825V16.8882L46.1034 16.8744C45.6582 16.7946 45.3311 16.593 45.1046 16.2336C44.877 15.8712 44.7619 15.36 44.7619 14.7156C44.7619 14.5506 44.7709 14.3598 44.7901 14.1492C44.8081 13.9416 44.8362 13.7112 44.874 13.464L46.3466 3.18L50.6189 17.7108H51.9346L55.7887 3.2112L57.4729 15.1302ZM95.747 15.7974C96.1244 15.291 96.4 14.622 96.566 13.809C96.7289 13.005 96.8116 11.7894 96.8116 10.1946V4.686C96.8116 3.4542 96.9224 2.559 97.1399 2.0256C97.3538 1.5 97.7121 1.188 98.2333 1.0272L98.301 1.0062V0.3672H94.1767V1.0062L94.257 1.0194C94.789 1.1064 95.1688 1.4124 95.4181 1.9764C95.6727 2.5506 95.8021 3.4242 95.8021 4.5708V10.1718C95.8021 11.9808 95.6942 13.2738 95.4816 14.0154C95.2731 14.7474 94.907 15.333 94.3948 15.7554C93.987 16.0813 93.5192 16.3237 93.018 16.4688C92.4997 16.6224 91.8701 16.7004 91.1463 16.7004C89.5994 16.7004 88.4922 16.3056 87.8554 15.528C87.2143 14.7444 86.8884 13.3644 86.8884 11.4258V3.0174C86.8884 2.2782 86.9687 1.7514 87.1274 1.4532C87.2778 1.1688 87.5193 1.0236 87.865 1.0098L87.9572 1.0062V0.3672H83.2074V1.0062L83.2991 1.0098C83.6442 1.0236 83.8856 1.1724 84.0366 1.464C84.1954 1.77 84.2762 2.2932 84.2762 3.018V10.9542C84.2762 12.3816 84.3571 13.4442 84.5171 14.1114C84.6788 14.7852 84.9484 15.3684 85.3199 15.8454C85.8507 16.5078 86.5661 17.0226 87.445 17.3754C88.3197 17.7276 89.3394 17.9058 90.4759 17.9058C91.7029 17.9058 92.7604 17.7318 93.6201 17.3874C94.4852 17.0406 95.2006 16.506 95.747 15.7974ZM81.7713 15.2634C81.4891 15.249 81.2753 15.1314 81.1177 14.9016C80.9559 14.6658 80.8732 14.3364 80.8732 13.9218V8.8272C80.8732 8.4504 80.9571 8.2074 81.1231 7.9728C81.283 7.7448 81.4825 7.6338 81.7324 7.6338H81.8282V6.993H72.9822V7.6338C72.9822 7.6338 73.3657 7.6644 73.6982 7.6782C74.8084 7.722 77.1072 7.7568 77.762 8.073C78.1754 8.2722 78.3971 8.7018 78.3971 9.183V14.3478C78.3971 15.1536 78.0418 15.8094 77.3414 16.2978C76.6303 16.794 75.6711 17.0454 74.4914 17.0454C72.6767 17.0454 71.2825 16.3554 70.3473 14.9934C69.4043 13.6224 68.9262 11.5818 68.9262 8.9298C68.9262 6.3324 69.3875 4.3272 70.2964 2.9694C71.1981 1.6236 72.5209 0.9414 74.2302 0.9414C75.3715 0.9414 76.423 1.2912 77.357 1.9812C78.2928 2.6724 79.0435 3.6576 79.5875 4.9092L79.6115 4.9632L80.1477 4.9944L80.8409 2.007L80.7834 1.9704C79.7655 1.3176 78.7607 0.8214 77.7956 0.4938C76.8268 0.1662 75.8724 0 74.9575 0C73.8228 0 72.7348 0.192 71.7241 0.57C70.7128 0.948 69.8279 1.4928 69.0952 2.1882C68.1483 3.07923 67.4006 4.16095 66.9012 5.3622C66.4057 6.5568 66.1547 7.866 66.1547 9.252C66.1547 10.3782 66.3248 11.4588 66.6597 12.4638C66.9958 13.4718 67.4757 14.3478 68.0874 15.0654C68.8957 16.0314 69.7997 16.7538 70.7745 17.2134C71.7487 17.673 72.8654 17.9064 74.0936 17.9064C75.2559 17.9064 76.4883 17.727 77.7566 17.3742C79.022 17.0214 80.3892 16.4736 81.821 15.7458L81.8762 15.7176L81.8582 15.2676L81.7713 15.2634ZM99.6299 1.0062L99.7215 1.0098C100.067 1.0236 100.308 1.1724 100.458 1.464C100.618 1.7712 100.698 2.2944 100.698 3.018V14.9106C100.698 15.6198 100.62 16.1334 100.464 16.4364C100.317 16.7244 100.073 16.8618 99.7197 16.8828L99.6299 16.8882V17.5266H104.379V16.8882L104.287 16.8846C103.934 16.8714 103.691 16.7274 103.544 16.4466C103.389 16.1526 103.31 15.6354 103.31 14.9106V3.0174C103.31 2.2782 103.391 1.7514 103.549 1.4532C103.7 1.1688 103.942 1.0236 104.287 1.0098L104.379 1.0062V0.3672H99.6299V1.0062ZM109.917 15.1866V3.0174C109.917 2.2746 110.103 1.7754 110.47 1.5348C110.851 1.2858 111.681 1.1592 112.936 1.1592C114.895 1.1592 116.375 1.8156 117.333 3.1104C118.297 4.4136 118.785 6.4254 118.785 9.0906C118.785 11.8446 118.271 13.8114 117.258 14.9376C116.248 16.0614 114.472 16.6314 111.981 16.6314C111.098 16.6314 110.525 16.53 110.279 16.3302C110.04 16.1358 109.917 15.7512 109.917 15.1866ZM117.152 1.1826C116.509 0.8508 115.784 0.6066 114.995 0.4554C114.206 0.3054 113.193 0.2292 111.981 0.2292C111.564 0.2292 111.216 0.2316 110.939 0.2352C110.663 0.2394 110.384 0.2454 110.103 0.2526L106.281 0.3672V1.0062L106.374 1.0098C106.719 1.0236 106.961 1.1688 107.112 1.4538C107.27 1.752 107.35 2.2782 107.35 3.0174V14.9106C107.35 15.6204 107.27 16.1358 107.11 16.4418C106.961 16.7328 106.719 16.8798 106.375 16.8858L106.281 16.8882V17.5266H112.572C115.372 17.5266 117.593 16.7826 119.173 15.3162C120.755 13.8462 121.558 11.7834 121.558 9.1824C121.558 7.4184 121.159 5.802 120.374 4.3794C119.588 2.9544 118.503 1.8786 117.152 1.1832V1.1826ZM135.307 13.6008L135.259 13.6698C134.75 14.3898 134.261 14.9544 133.808 15.3498C133.357 15.7416 132.882 16.0242 132.399 16.1874C132.01 16.3074 131.554 16.3956 131.042 16.4478C130.527 16.5012 129.647 16.5282 128.425 16.5282C127.182 16.5282 126.737 16.3968 126.582 16.287C126.434 16.182 126.259 15.8694 126.259 14.9796V8.3592H128.914C130.15 8.3592 130.975 8.4714 131.368 8.6922C131.755 8.9094 132.049 9.3096 132.245 9.8814L132.267 9.9468H132.84V5.7168H132.29L132.268 5.7816C132.073 6.3588 131.725 6.7674 131.233 6.996C130.728 7.23 129.837 7.35 128.585 7.35H126.259V2.616C126.259 1.9122 126.382 1.6644 126.485 1.581C126.593 1.4934 126.931 1.389 127.936 1.389H128.652C130.62 1.389 131.955 1.5714 132.62 1.9302C133.278 2.2842 133.783 2.9364 134.121 3.8682L134.148 3.9414L134.803 3.849L134.515 0.3672H122.623V1.0062L122.715 1.0098C123.061 1.0236 123.302 1.1688 123.453 1.4538C123.611 1.7526 123.692 2.2788 123.692 3.0174V14.9106C123.692 15.6198 123.611 16.137 123.453 16.4442C123.302 16.7346 123.061 16.8798 122.718 16.8864L122.623 16.8882V17.5266H134.92L135.938 13.9422L135.307 13.6008Z" fill="#C4CBD1"/>
</svg>
