<svg width="106" height="18" viewBox="0 0 106 18" fill="none" xmlns="http://www.w3.org/2000/svg">
<g clip-path="url(#clip0_237_133)">
<path d="M41.6296 1.8327C41.6296 1.40685 41.7986 0.998454 42.0993 0.697339C42.4 0.396224 42.808 0.227059 43.2333 0.227059C43.6586 0.227059 44.0665 0.396224 44.3672 0.697339C44.668 0.998454 44.8369 1.40685 44.8369 1.8327C44.8214 2.24817 44.6457 2.64145 44.3466 2.92991C44.0476 3.21836 43.6485 3.37952 43.2333 3.37952C42.818 3.37952 42.4189 3.21836 42.1199 2.92991C41.8208 2.64145 41.6451 2.24817 41.6296 1.8327" fill="#C4CBD1"/>
<path d="M66.9316 12.541C66.9316 11.6499 67.6486 10.9298 68.532 10.9298C68.9585 10.9298 69.3675 11.0994 69.6691 11.4014C69.9707 11.7033 70.1401 12.1129 70.1401 12.5399C70.1401 12.9669 69.9707 13.3765 69.6691 13.6784C69.3675 13.9804 68.9585 14.15 68.532 14.15C67.6497 14.15 66.9316 13.4288 66.9316 12.5399" fill="#C4CBD1"/>
<path d="M15.3114 11.8444C13.9311 11.8444 12.9707 10.7464 12.9707 9.17654C12.9707 7.6078 13.9311 6.51092 15.3125 6.51092C16.7006 6.51092 17.6711 7.6078 17.6711 9.17654C17.6711 10.771 16.7219 11.8444 15.3114 11.8444V11.8444ZM15.3114 4.1662C12.39 4.1662 10.2693 6.27387 10.2693 9.17654C10.2693 12.0803 12.3912 14.1869 15.3114 14.1869C18.2451 14.1869 20.3736 12.0803 20.3736 9.17766C20.3736 6.27387 18.2451 4.1662 15.3125 4.1662H15.3114ZM38.5239 9.42812C38.4223 9.23123 38.2937 9.04947 38.142 8.88806L38.0527 8.79526L38.1465 8.70581C38.2805 8.56381 38.4178 8.39609 38.5496 8.20153L41.1293 4.36411H37.998L36.0604 7.36629C35.951 7.5273 35.7299 7.6078 35.3982 7.6078H34.9571V1.93217C34.9571 0.797265 34.2502 0.642963 33.4875 0.642963H32.1809L32.1842 14.0393H34.9582V10.0207H35.2184C35.5345 10.0207 35.7488 10.0576 35.8482 10.2298L37.3782 13.1213C37.8059 13.9062 38.2313 14.0393 39.0332 14.0393H41.1583L39.5748 11.4184L38.5251 9.42812H38.5239ZM51.9896 4.14383C50.5781 4.14383 49.6779 4.77222 49.1732 5.30333L49.0057 5.47329L48.9454 5.24184C48.798 4.67271 48.2977 4.36075 47.5461 4.36075H46.3031L46.311 14.0359H49.066V9.57683C49.066 9.14076 49.1218 8.76283 49.2379 8.41733C49.5439 7.37188 50.3993 6.72224 51.4681 6.72224C52.328 6.72224 52.6641 7.17732 52.6641 8.35136V12.5656C52.6641 13.5674 53.1275 14.0359 54.1293 14.0359H55.4403L55.4359 7.88175C55.4359 5.43751 54.2443 4.14495 51.9896 4.14495V4.14383ZM43.2667 4.36411H41.9613L41.9702 11.8455V14.0393H43.3628L43.4119 14.0415L44.0619 14.0393H44.7074V14.0359H44.7118L44.7174 5.83445C44.7174 4.8449 44.245 4.36522 43.2679 4.36522L43.2667 4.36411ZM26.1315 11.8444C24.7512 11.8444 23.7897 10.7464 23.7897 9.17654C23.7897 7.6078 24.7512 6.51092 26.1326 6.51092C27.5174 6.51092 28.4912 7.6078 28.4912 9.17654C28.4912 10.771 27.542 11.8444 26.1326 11.8444H26.1315ZM26.1315 4.1662C23.2079 4.1662 21.086 6.27387 21.086 9.17654C21.086 12.0803 23.2079 14.1869 26.1326 14.1869C29.0619 14.1869 31.1948 12.0803 31.1948 9.17766C31.1948 6.27387 29.0619 4.1662 26.1326 4.1662" fill="#C4CBD1"/>
<path d="M85.1791 11.8443C83.7988 11.8443 82.8361 10.7463 82.8361 9.17642C82.8361 7.60768 83.7988 6.51079 85.1791 6.51079C86.566 6.51079 87.5387 7.60768 87.5387 9.17642C87.5387 10.7709 86.5895 11.8443 85.1791 11.8443ZM85.1791 4.16608C82.2555 4.16608 80.1348 6.27375 80.1348 9.17642C80.1348 12.0802 82.2555 14.1868 85.1791 14.1868C88.1093 14.1868 90.2412 12.0802 90.2412 9.17754C90.2412 6.27375 88.1082 4.16608 85.1791 4.16608" fill="#C4CBD1"/>
<path d="M61.244 11.4183C59.7375 11.4183 59.2015 10.1034 59.2015 8.87006C59.2015 8.32665 59.3388 6.55665 61.0999 6.55665C61.9743 6.55665 63.1391 6.80711 63.1391 8.96063C63.1391 10.9923 62.1084 11.4183 61.244 11.4183V11.4183ZM64.5696 4.33828C64.047 4.33828 63.645 4.54737 63.4429 4.92865L63.367 5.07624L63.2396 4.96443C62.7952 4.57979 61.9978 4.12248 60.7035 4.12248C58.1272 4.12248 56.3929 6.0602 56.3929 8.94162C56.3929 11.8219 58.1875 13.8346 60.7549 13.8346C61.6316 13.8346 62.325 13.6288 62.8744 13.2129L63.0866 13.053V13.3213C63.0866 14.6139 62.2524 15.3273 60.7392 15.3273C60.0033 15.3273 59.3344 15.1484 58.8855 14.9851C58.3025 14.8085 57.9586 14.9549 57.7229 15.542L57.5041 16.0831L57.1947 16.8748L57.3857 16.9765C58.355 17.4909 59.6158 17.7983 60.7549 17.7983C63.1001 17.7983 65.8405 16.5963 65.8405 13.2129L65.8506 4.33828H64.5696" fill="#C4CBD1"/>
<path d="M5.05329 11.7337L2.81088 11.7315V9.04795C2.81088 8.47323 3.03311 8.17581 3.52336 8.10649H5.05329C6.14434 8.10649 6.8501 8.79526 6.85122 9.91003C6.8501 11.055 6.16221 11.7326 5.05329 11.7326V11.7337ZM2.81088 4.49269V3.78603C2.81088 3.1677 3.0722 2.87363 3.64509 2.83562H4.79312C5.77696 2.83562 6.3666 3.42487 6.3666 4.41218C6.3666 5.16357 5.96232 6.0413 4.82883 6.0413H2.81088V4.49269V4.49269ZM7.91664 7.17173L7.51122 6.94363L7.86524 6.64062C8.27732 6.28617 8.96637 5.48894 8.96637 4.11364C8.96637 2.00708 7.33592 0.647432 4.81097 0.647432H1.60144C1.2403 0.660616 0.898089 0.812414 0.645693 1.07137C0.393297 1.33033 0.250077 1.67658 0.245728 2.03839V13.9912H4.86789C7.67426 13.9912 9.48562 12.4616 9.48562 10.0923C9.48562 8.8165 8.90048 7.72632 7.91664 7.17173" fill="#C4CBD1"/>
<path d="M102.547 4.17621C101.978 4.1783 101.417 4.3083 100.905 4.55661C100.393 4.80491 99.9437 5.16517 99.5896 5.61077L99.3909 5.86347L99.2345 5.58058C98.723 4.64918 97.8453 4.17621 96.6247 4.17621C95.3438 4.17621 94.485 4.89181 94.0863 5.3167L93.825 5.59959L93.7245 5.22725C93.5793 4.69055 93.1025 4.39648 92.3811 4.39648H91.223L91.2118 14.0348H93.8418V9.78028C93.8418 9.40683 93.8887 9.03896 93.9814 8.6532C94.2326 7.62452 94.9227 6.51869 96.083 6.62939C96.7977 6.69871 97.1484 7.25219 97.1484 8.32112V14.0348H99.7974V9.78028C99.7974 9.31402 99.8409 8.96516 99.9459 8.61631C100.158 7.63459 100.879 6.62827 101.998 6.62827C102.809 6.62827 103.108 7.0867 103.108 8.32112V12.6259C103.108 13.5987 103.542 14.0348 104.514 14.0348H105.752L105.754 7.88169C105.754 5.42292 104.673 4.17621 102.547 4.17621V4.17621ZM78.6104 10.6882C78.6026 10.6983 77.4714 11.8924 75.9805 11.8924C74.6226 11.8924 73.2513 11.0583 73.2513 9.19662C73.2513 7.58874 74.3144 6.46502 75.8376 6.46502C76.3312 6.46502 76.8941 6.64169 76.9823 6.94023L76.9946 6.99054C77.0508 7.19608 77.1733 7.37728 77.3429 7.50605C77.5125 7.63483 77.7197 7.70398 77.9326 7.70279L79.3732 7.70503V6.44378C79.3732 4.78 77.2592 4.17621 75.8376 4.17621C72.7956 4.17621 70.5889 6.29618 70.5889 9.21674C70.5889 12.1351 72.771 14.2528 75.7818 14.2528C78.3927 14.2528 79.8132 12.5342 79.8266 12.5175L79.9026 12.4235L78.7612 10.5283L78.6104 10.6882" fill="#C4CBD1"/>
</g>
<defs>
<clipPath id="clip0_237_133">
<rect width="106" height="18" fill="white"/>
</clipPath>
</defs>
</svg>
