<svg width="106" height="18" viewBox="0 0 106 18" fill="none" xmlns="http://www.w3.org/2000/svg">
<g clip-path="url(#clip0_243_157)">
<path d="M41.6296 1.83263C41.6296 1.40679 41.7985 0.998393 42.0993 0.697278C42.4 0.396163 42.8079 0.226997 43.2333 0.226997C43.6586 0.226997 44.0664 0.396163 44.3672 0.697278C44.6679 0.998393 44.8369 1.40679 44.8369 1.83263C44.8214 2.24811 44.6456 2.64139 44.3466 2.92984C44.0475 3.2183 43.6485 3.37946 43.2333 3.37946C42.818 3.37946 42.4189 3.2183 42.1199 2.92984C41.8208 2.64139 41.6451 2.24811 41.6296 1.83263" fill="#C4CBD1"/>
<path d="M66.9316 12.541C66.9316 11.6498 67.6486 10.9297 68.5319 10.9297C68.9584 10.9297 69.3675 11.0994 69.6691 11.4013C69.9707 11.7033 70.1401 12.1128 70.1401 12.5398C70.1401 12.9669 69.9707 13.3764 69.6691 13.6784C69.3675 13.9803 68.9584 14.15 68.5319 14.15C67.6497 14.15 66.9316 13.4288 66.9316 12.5398" fill="#C4CBD1"/>
<path d="M15.3114 11.8444C13.9311 11.8444 12.9707 10.7464 12.9707 9.17651C12.9707 7.60777 13.9311 6.51089 15.3125 6.51089C16.7006 6.51089 17.6711 7.60777 17.6711 9.17651C17.6711 10.771 16.7219 11.8444 15.3114 11.8444V11.8444ZM15.3114 4.16617C12.39 4.16617 10.2693 6.27384 10.2693 9.17651C10.2693 12.0803 12.3911 14.1869 15.3114 14.1869C18.2451 14.1869 20.3736 12.0803 20.3736 9.17763C20.3736 6.27384 18.2451 4.16617 15.3125 4.16617H15.3114ZM38.5239 9.42809C38.4223 9.2312 38.2937 9.04944 38.142 8.88803L38.0527 8.79523L38.1465 8.70578C38.2805 8.56378 38.4178 8.39606 38.5496 8.2015L41.1293 4.36407H37.998L36.0604 7.36626C35.951 7.52727 35.7299 7.60777 35.3982 7.60777H34.9571V1.93214C34.9571 0.797235 34.2502 0.642933 33.4875 0.642933H32.1808L32.1842 14.0393H34.9582V10.0207H35.2184C35.5344 10.0207 35.7488 10.0576 35.8482 10.2298L37.3781 13.1213C37.8058 13.9062 38.2313 14.0393 39.0331 14.0393H41.1583L39.5748 11.4184L38.5251 9.42809H38.5239ZM51.9896 4.1438C50.5781 4.1438 49.6779 4.77219 49.1732 5.3033L49.0057 5.47326L48.9454 5.24181C48.798 4.67268 48.2977 4.36072 47.5461 4.36072H46.3031L46.311 14.0359H49.0659V9.5768C49.0659 9.14073 49.1218 8.7628 49.2379 8.4173C49.5439 7.37185 50.3993 6.72221 51.468 6.72221C52.3279 6.72221 52.6641 7.17729 52.6641 8.35133V12.5656C52.6641 13.5674 53.1275 14.0359 54.1292 14.0359H55.4403L55.4359 7.88172C55.4359 5.43748 54.2443 4.14492 51.9896 4.14492V4.1438ZM43.2667 4.36407H41.9612L41.9702 11.8455V14.0393H43.3628L43.4119 14.0415L44.0619 14.0393H44.7074V14.0359H44.7118L44.7174 5.83442C44.7174 4.84487 44.245 4.36519 43.2679 4.36519L43.2667 4.36407ZM26.1315 11.8444C24.7512 11.8444 23.7897 10.7464 23.7897 9.17651C23.7897 7.60777 24.7512 6.51089 26.1326 6.51089C27.5174 6.51089 28.4912 7.60777 28.4912 9.17651C28.4912 10.771 27.542 11.8444 26.1326 11.8444H26.1315ZM26.1315 4.16617C23.2078 4.16617 21.086 6.27384 21.086 9.17651C21.086 12.0803 23.2079 14.1869 26.1326 14.1869C29.0618 14.1869 31.1948 12.0803 31.1948 9.17763C31.1948 6.27384 29.0618 4.16617 26.1326 4.16617" fill="#C4CBD1"/>
<path d="M85.1791 11.8443C83.7988 11.8443 82.8361 10.7463 82.8361 9.17648C82.8361 7.60774 83.7988 6.51086 85.1791 6.51086C86.566 6.51086 87.5387 7.60774 87.5387 9.17648C87.5387 10.7709 86.5895 11.8443 85.1791 11.8443ZM85.1791 4.16614C82.2555 4.16614 80.1349 6.27381 80.1349 9.17648C80.1349 12.0803 82.2555 14.1868 85.1791 14.1868C88.1093 14.1868 90.2412 12.0803 90.2412 9.1776C90.2412 6.27381 88.1082 4.16614 85.1791 4.16614" fill="#C4CBD1"/>
<path d="M61.244 11.4183C59.7375 11.4183 59.2015 10.1034 59.2015 8.87012C59.2015 8.32671 59.3388 6.55671 61.0999 6.55671C61.9743 6.55671 63.1391 6.80717 63.1391 8.96069C63.1391 10.9923 62.1084 11.4183 61.244 11.4183V11.4183ZM64.5696 4.33834C64.047 4.33834 63.645 4.54743 63.4429 4.92871L63.367 5.0763L63.2396 4.96449C62.7952 4.57985 61.9978 4.12254 60.7035 4.12254C58.1272 4.12254 56.3929 6.06026 56.3929 8.94168C56.3929 11.822 58.1875 13.8346 60.7549 13.8346C61.6316 13.8346 62.325 13.6289 62.8744 13.2129L63.0866 13.0531V13.3214C63.0866 14.614 62.2524 15.3273 60.7392 15.3273C60.0033 15.3273 59.3344 15.1484 58.8855 14.9852C58.3025 14.8085 57.9586 14.955 57.7229 15.542L57.5041 16.0832L57.1947 16.8748L57.3857 16.9766C58.355 17.4909 59.6158 17.7984 60.7549 17.7984C63.1001 17.7984 65.8405 16.5964 65.8405 13.2129L65.8506 4.33834H64.5696" fill="#C4CBD1"/>
<path d="M5.05329 11.7336L2.81088 11.7314V9.04789C2.81088 8.47317 3.03311 8.17575 3.52336 8.10642H5.05329C6.14434 8.10642 6.8501 8.79519 6.85122 9.90997C6.8501 11.0549 6.16221 11.7325 5.05329 11.7325V11.7336ZM2.81088 4.49263V3.78597C2.81088 3.16764 3.0722 2.87357 3.64509 2.83555H4.79312C5.77696 2.83555 6.3666 3.42481 6.3666 4.41212C6.3666 5.1635 5.96232 6.04124 4.82883 6.04124H2.81088V4.49263V4.49263ZM7.91664 7.17167L7.51122 6.94357L7.86524 6.64056C8.27732 6.28611 8.96637 5.48888 8.96637 4.11358C8.96637 2.00702 7.33592 0.647371 4.81097 0.647371H1.60144C1.2403 0.660555 0.898089 0.812353 0.645693 1.07131C0.393297 1.33026 0.250077 1.67652 0.245728 2.03833V13.9911H4.86789C7.67426 13.9911 9.48562 12.4615 9.48562 10.0922C9.48562 8.81644 8.90048 7.72626 7.91664 7.17167" fill="#C4CBD1"/>
<path d="M102.547 4.17621C101.978 4.1783 101.417 4.3083 100.905 4.55661C100.393 4.80491 99.9437 5.16517 99.5896 5.61077L99.3909 5.86347L99.2345 5.58058C98.723 4.64918 97.8453 4.17621 96.6247 4.17621C95.3438 4.17621 94.485 4.89181 94.0863 5.3167L93.825 5.59959L93.7245 5.22725C93.5793 4.69055 93.1025 4.39648 92.3811 4.39648H91.223L91.2118 14.0348H93.8418V9.78028C93.8418 9.40683 93.8887 9.03896 93.9814 8.6532C94.2326 7.62452 94.9227 6.51869 96.083 6.62939C96.7977 6.69871 97.1484 7.25219 97.1484 8.32112V14.0348H99.7974V9.78028C99.7974 9.31402 99.8409 8.96516 99.9459 8.61631C100.158 7.63459 100.879 6.62827 101.998 6.62827C102.809 6.62827 103.108 7.0867 103.108 8.32112V12.6259C103.108 13.5987 103.542 14.0348 104.514 14.0348H105.752L105.754 7.88169C105.754 5.42292 104.673 4.17621 102.547 4.17621V4.17621ZM78.6104 10.6882C78.6026 10.6983 77.4714 11.8924 75.9805 11.8924C74.6226 11.8924 73.2513 11.0583 73.2513 9.19662C73.2513 7.58874 74.3144 6.46502 75.8376 6.46502C76.3312 6.46502 76.8941 6.64169 76.9823 6.94023L76.9946 6.99054C77.0508 7.19608 77.1733 7.37728 77.3429 7.50605C77.5125 7.63483 77.7197 7.70398 77.9326 7.70279L79.3732 7.70503V6.44378C79.3732 4.78 77.2592 4.17621 75.8376 4.17621C72.7956 4.17621 70.5889 6.29618 70.5889 9.21674C70.5889 12.1351 72.771 14.2528 75.7818 14.2528C78.3927 14.2528 79.8132 12.5342 79.8266 12.5175L79.9026 12.4235L78.7612 10.5283L78.6104 10.6882" fill="#C4CBD1"/>
</g>
<defs>
<clipPath id="clip0_243_157">
<rect width="106" height="18" fill="white"/>
</clipPath>
</defs>
</svg>
