<svg width="16" height="16" viewBox="0 0 16 16" fill="none" xmlns="http://www.w3.org/2000/svg">
<path d="M16 14.4307L11.8301 10.294C12.6144 9.224 13.0781 7.908 13.0781 6.48667C13.0781 2.91 10.1447 0 6.5387 0C2.93334 0 0 2.91 0 6.48667C0 10.064 2.93334 12.9733 6.5387 12.9733C7.90558 12.9733 9.17502 12.5553 10.226 11.8413L14.4181 16L16 14.4307V14.4307ZM1.91793 6.48667C1.91793 3.95867 3.9911 1.902 6.53938 1.902C9.08766 1.902 11.1608 3.95867 11.1608 6.48667C11.1608 9.01467 9.08766 11.0713 6.53938 11.0713C3.99042 11.0713 1.91793 9.01467 1.91793 6.48667V6.48667Z" fill="#595959"/>
</svg>
