<svg xmlns="http://www.w3.org/2000/svg" width="700" height="394" viewBox="0 0 700 394">
<g>
<path d="M 156.17,239.53 C139.64,235.78 127.79,221.98 126.13,204.54 C125.17,194.49 126.48,183.83 129.49,177.25 C132.30,171.10 140.71,161.84 146.63,158.37 C152.42,154.98 164.04,152.68 171.61,153.42 C187.77,155.02 198.61,162.57 205.38,176.95 C208.09,182.72 208.50,184.78 208.84,194.21 C209.15,203.00 208.84,206.16 207.11,211.86 C203.32,224.33 192.97,235.09 181.40,238.58 C174.10,240.79 163.46,241.19 156.17,239.53 M 175.13,220.42 C186.84,214.43 189.77,190.76 180.35,178.25 C176.52,173.17 171.94,171.40 163.75,171.85 C160.02,172.05 153.16,178.43 150.68,184.00 C149.21,187.31 148.66,190.76 148.62,197.05 C148.57,204.43 148.95,206.37 151.35,211.27 C156.42,221.64 165.73,225.22 175.13,220.42 M 245.00,239.63 C222.10,234.64 209.57,211.37 215.57,185.00 C218.52,172.04 228.31,160.73 240.75,155.92 C248.88,152.79 264.08,152.77 272.15,155.89 C287.25,161.72 296.47,175.11 297.70,193.00 C299.89,224.64 275.44,246.27 245.00,239.63 M 265.09,219.72 C277.94,211.06 277.60,182.10 264.55,174.03 C260.32,171.41 252.60,171.12 248.19,173.40 C233.72,180.89 233.20,211.44 247.39,220.10 C251.94,222.87 260.69,222.69 265.09,219.72 M 57.25,239.28 L 54.00,238.87 L 54.00,197.55 L 54.00,156.23 L 56.25,155.57 C57.49,155.21 64.82,154.64 72.54,154.32 C93.84,153.41 103.57,155.67 110.66,163.16 C114.72,167.45 116.47,173.36 115.54,179.65 C114.94,183.69 114.01,185.28 109.96,189.20 L 105.10,193.91 L 109.30,196.20 C115.41,199.55 119.33,207.42 118.69,215.07 C117.62,227.82 110.02,235.40 95.16,238.55 C88.95,239.87 65.62,240.32 57.25,239.28 M 90.00,221.25 C97.17,217.66 97.71,209.14 90.98,205.75 C88.87,204.69 85.23,204.00 81.75,204.00 L 76.00,204.00 L 76.00,213.50 L 76.00,223.00 L 81.25,223.00 C84.24,223.00 88.00,222.25 90.00,221.25 M 89.47,184.83 C92.33,183.53 94.44,178.96 93.52,176.06 C92.50,172.85 87.65,170.86 81.70,171.20 L 76.50,171.50 L 76.20,177.89 C75.77,186.99 76.04,187.39 82.06,186.59 C84.82,186.22 88.16,185.43 89.47,184.83 M 527.00,238.25 C523.42,237.28 518.44,235.28 515.92,233.80 C493.72,220.78 490.32,185.23 509.53,167.06 C519.94,157.21 531.68,153.51 550.00,154.30 C560.86,154.77 566.66,155.83 569.93,157.92 C571.16,158.71 571.10,159.98 569.51,166.97 C568.49,171.44 567.32,175.30 566.92,175.55 C566.51,175.80 563.35,175.28 559.89,174.39 C555.53,173.28 550.76,172.90 544.40,173.18 C536.34,173.53 534.62,173.95 530.41,176.55 C518.35,184.00 516.50,204.70 526.99,214.87 C531.33,219.09 538.88,222.01 545.36,221.98 C552.12,221.96 552.74,220.94 552.20,210.75 L 552.00,207.00 L 546.06,207.00 C542.79,207.00 539.94,206.66 539.73,206.25 C539.52,205.84 539.54,201.79 539.78,197.25 L 540.21,189.00 L 557.12,189.00 L 574.04,189.00 L 573.77,212.24 L 573.50,235.47 L 567.00,237.31 C557.27,240.05 535.51,240.57 527.00,238.25 M 306.26,199.75 C306.12,178.16 306.27,159.26 306.59,157.75 L 307.16,155.00 L 317.58,155.00 L 328.00,155.00 L 328.00,169.33 C328.00,177.22 328.29,183.96 328.65,184.31 C329.00,184.67 334.04,178.22 339.84,169.98 L 350.39,155.00 L 364.22,155.00 L 378.06,155.00 L 364.03,172.46 C356.31,182.07 350.00,190.44 350.00,191.05 C350.00,191.93 368.42,222.22 377.78,236.75 L 379.23,239.00 L 366.23,239.00 L 353.23,239.00 L 349.26,232.25 C347.07,228.54 342.67,221.04 339.49,215.58 L 333.69,205.67 L 330.84,208.85 C328.02,212.01 328.00,212.11 328.00,225.52 L 328.00,239.00 L 317.25,239.00 L 306.50,239.00 L 306.26,199.75 M 383.00,197.00 L 383.00,155.00 L 394.00,155.00 L 405.00,155.00 L 405.00,197.00 L 405.00,239.00 L 394.00,239.00 L 383.00,239.00 L 383.00,197.00 M 416.00,197.00 L 416.00,155.00 L 428.41,155.00 L 440.82,155.00 L 450.64,171.75 C456.04,180.96 462.12,191.88 464.16,196.00 L 467.87,203.50 L 467.94,179.25 L 468.00,155.00 L 478.00,155.00 L 488.00,155.00 L 488.00,197.00 L 488.00,239.00 L 477.07,239.00 C466.27,239.00 466.11,238.97 464.22,236.25 C462.19,233.34 440.43,194.60 437.95,189.50 C436.64,186.78 436.48,188.96 436.23,212.75 L 435.97,239.00 L 425.98,239.00 L 416.00,239.00 L 416.00,197.00 Z" fill="#C4CBD1"/>
</g>
</svg>